<?xml version="1.0" standalone="no"?>
<!DOCTYPE svg PUBLIC "-//W3C//DTD SVG 20010904//EN"
 "http://www.w3.org/TR/2001/REC-SVG-20010904/DTD/svg10.dtd">
<svg version="1.0" xmlns="http://www.w3.org/2000/svg"
 width="932.000000pt" height="932.000000pt" viewBox="0 0 932.000000 932.000000"
 preserveAspectRatio="xMidYMid meet">
<metadata>
Created by potrace 1.11, written by Peter Selinger 2001-2013
</metadata>
<g transform="translate(0.000000,932.000000) scale(0.100000,-0.100000)"
fill="#000000" stroke="none">
<path d="M4642 9230 c-228 -178 -340 -288 -445 -438 -20 -28 -37 -54 -37 -57
0 -2 -13 -26 -28 -52 -39 -67 -119 -261 -137 -333 -1 -3 -4 -12 -8 -20 -16
-41 -85 -312 -103 -405 -10 -50 -11 -54 -14 -57 -3 -4 -7 -24 -29 -148 -12
-63 -23 -126 -26 -139 -2 -13 -7 -49 -11 -80 -9 -82 -19 -93 -39 -46 -33 82
-116 199 -203 289 -119 123 -296 233 -457 284 -84 26 -108 27 -129 6 -21 -20
-16 -45 27 -126 49 -94 96 -245 114 -363 9 -65 9 -276 0 -341 -5 -28 -15 -75
-23 -105 -8 -30 -16 -58 -18 -64 -11 -45 -41 -123 -52 -136 -8 -8 -14 -21 -14
-27 0 -20 -137 -252 -180 -305 -5 -7 -69 -88 -142 -182 -151 -193 -154 -197
-189 -239 -50 -59 -182 -250 -246 -355 -35 -58 -68 -113 -73 -121 -29 -46
-132 -268 -162 -350 -20 -52 -39 -104 -44 -115 -4 -11 -8 -24 -9 -30 -2 -5
-12 -44 -23 -85 -22 -78 -25 -93 -42 -196 -28 -172 -26 -443 4 -543 12 -39 18
-80 21 -136 2 -44 15 -88 48 -167 25 -59 41 -110 36 -113 -5 -4 -9 -1 -9 4 0
6 -7 11 -15 11 -8 0 -15 4 -15 9 0 5 -10 11 -23 15 -42 10 -211 139 -302 230
-97 97 -195 227 -255 338 -11 21 -26 39 -33 39 -42 4 -63 -12 -72 -56 -26
-141 -27 -587 -1 -745 3 -14 10 -59 16 -100 7 -41 21 -113 32 -160 11 -47 21
-92 23 -100 14 -61 81 -264 118 -356 73 -181 229 -466 314 -574 146 -186 281
-316 400 -385 18 -10 30 -22 27 -27 -3 -5 -10 -6 -15 -2 -14 8 -114 -23 -183
-58 -217 -110 -387 -344 -455 -628 -18 -79 -24 -111 -36 -200 -27 -199 -25
-610 4 -708 5 -18 10 -35 10 -37 -1 -25 20 -84 53 -152 69 -143 198 -248 341
-277 69 -15 171 -13 221 4 21 7 42 7 57 2 13 -5 33 -8 44 -6 19 3 131 12 250
19 121 8 345 18 690 30 152 6 326 12 490 20 98 4 253 14 325 20 25 2 77 7 115
10 39 3 84 7 100 10 17 2 62 6 100 10 61 5 124 14 225 30 14 2 45 7 70 10 65
9 109 16 134 21 11 2 35 7 51 10 17 2 93 16 170 30 77 15 151 28 165 31 14 2
129 24 255 48 127 24 246 47 265 50 19 3 58 10 85 15 28 5 64 12 80 15 17 3
66 13 110 21 44 8 93 17 109 19 16 3 72 13 125 24 53 11 111 23 128 26 18 3
77 14 130 24 54 11 114 22 134 25 20 3 42 8 50 10 8 3 25 7 39 10 21 3 109 21
205 42 11 2 34 7 50 10 17 2 46 9 65 14 19 5 46 11 60 14 14 2 55 11 93 20 37
9 82 18 100 21 17 3 55 12 82 20 28 8 62 16 76 19 14 2 74 16 135 32 60 15
116 28 124 29 8 1 22 5 30 8 8 3 41 13 73 22 35 9 60 23 64 33 4 9 18 29 32
43 14 14 40 42 58 62 17 21 38 37 46 37 10 0 24 26 41 77 39 121 57 185 62
222 2 19 9 54 15 80 11 51 10 205 -2 260 -4 20 -10 50 -13 66 -9 56 -16 80
-52 195 -56 177 -117 327 -219 535 -160 327 -195 383 -237 376 -15 -2 -8 14
20 44 103 113 230 323 306 506 33 79 84 237 92 284 1 11 5 31 9 45 5 25 9 47
19 105 11 64 19 175 19 280 0 97 -3 137 -18 260 -11 93 -64 294 -101 385 -34
81 -128 259 -168 315 -66 95 -116 85 -130 -27 -9 -66 -52 -210 -81 -273 -14
-28 -25 -57 -25 -63 0 -7 -4 -12 -8 -12 -5 0 -13 -12 -19 -27 -8 -22 -11 2
-13 117 -2 159 -5 226 -14 274 -3 17 -9 53 -12 81 -3 27 -7 52 -9 56 -2 3 -7
19 -9 36 -15 84 -115 348 -157 413 -5 8 -12 22 -16 30 -21 47 -206 336 -223
350 -3 3 -17 21 -30 40 -13 19 -27 37 -30 40 -3 3 -21 25 -40 50 -19 25 -37
47 -40 50 -3 3 -32 39 -65 80 -32 41 -62 77 -66 80 -4 3 -33 37 -65 75 -33 39
-69 81 -81 95 -28 32 -251 300 -266 320 -7 9 -28 36 -48 60 -66 83 -197 275
-249 365 -112 195 -198 417 -226 585 -9 49 -9 52 -17 76 -8 23 -30 33 -59 26
-27 -5 -216 -306 -339 -538 -34 -63 -64 -114 -68 -114 -16 0 -125 114 -177
186 -50 69 -115 191 -151 280 -60 151 -113 400 -138 653 -4 35 -9 82 -12 105
-3 23 -6 214 -7 425 -3 361 -4 385 -21 397 -10 8 -26 14 -34 13 -9 0 -67 -40
-129 -89z m76 -317 c-1 -234 4 -365 18 -493 3 -30 7 -71 9 -90 5 -49 14 -111
31 -210 20 -122 25 -143 29 -151 3 -4 7 -24 11 -45 16 -106 118 -358 189 -469
87 -135 217 -270 291 -301 67 -28 62 -33 154 141 42 78 88 161 123 220 10 17
20 38 23 48 4 9 10 17 15 17 5 0 9 4 9 9 0 12 73 131 81 131 3 0 13 -33 24
-72 10 -40 21 -77 26 -83 4 -5 7 -12 7 -15 -4 -28 98 -256 170 -380 61 -105
305 -448 341 -480 4 -3 31 -34 61 -70 30 -36 67 -78 81 -95 131 -150 289 -336
289 -340 0 -2 10 -14 23 -27 12 -13 36 -41 52 -62 17 -21 50 -64 75 -96 25
-31 63 -83 85 -116 22 -32 43 -61 46 -64 15 -12 141 -224 183 -308 47 -93 120
-298 130 -366 4 -21 8 -48 11 -60 26 -116 35 -324 26 -601 -4 -110 -4 -110 24
-123 34 -16 47 -8 94 54 86 116 164 273 206 418 9 32 18 56 19 54 17 -21 81
-153 110 -226 82 -209 111 -371 111 -622 0 -163 -6 -242 -25 -325 -7 -27 -14
-63 -17 -80 -8 -53 -81 -263 -119 -343 -89 -187 -207 -352 -362 -510 -170
-172 -357 -302 -597 -418 -117 -56 -339 -139 -405 -151 -14 -2 -50 -10 -80
-18 -54 -13 -112 -24 -160 -30 -96 -13 -155 -26 -169 -38 -9 -8 -29 -17 -46
-21 -224 -48 -306 -61 -428 -71 -23 -2 -82 -7 -132 -11 -163 -15 -1448 -7
-1935 12 -309 11 -463 19 -620 30 -30 2 -97 4 -148 4 -144 0 -288 38 -327 87
-12 15 -32 25 -50 26 -84 5 -297 207 -447 422 -73 106 -181 304 -242 448 -9
20 -22 52 -30 70 -15 35 -75 208 -81 235 -3 9 -13 51 -25 92 -11 41 -22 89
-25 105 -3 17 -12 64 -20 105 -13 68 -17 97 -32 225 -2 22 -6 141 -7 264 l-3
225 26 -31 c14 -17 41 -52 60 -78 52 -70 181 -197 271 -266 143 -109 364 -225
408 -214 45 11 42 39 -16 184 -31 75 -55 146 -54 159 1 12 -9 60 -22 105 -13
45 -27 98 -30 117 -3 19 -8 46 -10 60 -31 179 -21 386 29 595 56 239 151 458
308 718 64 105 269 400 300 432 7 6 21 24 32 39 11 15 62 80 113 144 238 300
363 523 416 742 60 244 34 576 -60 787 -23 51 -17 54 51 23 145 -65 295 -186
395 -319 56 -74 127 -213 159 -313 l22 -66 49 -7 c57 -8 84 4 105 45 20 39 19
52 -6 79 -22 23 -23 57 -4 188 7 52 49 287 59 328 14 60 25 113 29 135 19 100
102 382 146 495 95 245 190 377 410 573 14 13 51 42 81 65 30 23 59 48 63 54
4 7 12 13 16 13 5 0 9 -111 9 -247z m2835 -6285 c41 -74 187 -363 187 -371 0
-3 18 -44 40 -92 38 -81 149 -397 155 -440 1 -11 5 -27 8 -35 29 -77 28 -283
-2 -412 -13 -58 -28 -98 -35 -98 -25 0 -46 -26 -52 -65 -10 -67 -34 -114 -80
-153 -48 -43 -99 -62 -167 -62 -37 0 -49 -5 -64 -25 -10 -14 -27 -27 -38 -29
-38 -8 -200 -46 -239 -57 -22 -6 -49 -13 -60 -15 -58 -11 -133 -27 -231 -49
-38 -8 -90 -20 -115 -25 -25 -5 -54 -11 -65 -14 -22 -5 -216 -45 -252 -52 -13
-2 -34 -6 -48 -9 -14 -3 -36 -7 -50 -10 -14 -3 -36 -7 -50 -10 -14 -3 -37 -7
-52 -10 -16 -3 -35 -8 -43 -10 -8 -2 -31 -7 -50 -10 -29 -4 -156 -28 -270 -50
-14 -3 -50 -9 -80 -15 -57 -10 -68 -13 -160 -31 -30 -6 -66 -12 -80 -14 -14
-2 -50 -9 -80 -15 -55 -11 -69 -14 -125 -24 -16 -3 -52 -10 -80 -16 -27 -6
-68 -13 -90 -16 -22 -2 -56 -9 -75 -14 -19 -5 -48 -11 -65 -14 -16 -3 -43 -8
-60 -11 -89 -17 -133 -25 -160 -30 -16 -3 -70 -12 -120 -21 -49 -8 -106 -18
-125 -20 -19 -2 -42 -6 -50 -9 -8 -2 -37 -7 -65 -10 -27 -3 -66 -8 -85 -11
-59 -9 -82 -12 -150 -19 -36 -4 -77 -9 -93 -10 -102 -12 -192 -19 -254 -19
-40 -1 -73 -3 -73 -6 0 -4 -10 -6 -22 -6 -13 -1 -93 -4 -178 -8 -157 -8 -182
-9 -505 -20 -489 -18 -786 -33 -817 -42 -10 -3 -18 -4 -18 -1 0 2 24 28 53 58
63 64 103 121 147 209 33 65 93 230 84 230 -3 0 0 9 6 20 6 12 14 42 16 68 3
26 9 63 14 82 20 83 30 431 15 500 -4 14 -7 42 -9 63 -2 37 -1 38 23 34 18 -4
33 1 48 15 27 25 80 33 228 32 129 -1 194 -7 290 -30 39 -9 91 -20 117 -24 26
-5 55 -13 64 -18 37 -21 78 16 66 60 -5 22 -61 57 -99 64 -15 3 -42 9 -60 15
-33 11 -46 13 -158 34 -86 16 -334 13 -425 -5 -36 -7 -74 -21 -86 -31 -25 -24
-34 -24 -34 -1 0 27 -58 190 -99 277 -21 44 -59 110 -84 148 -26 37 -45 67
-43 67 2 0 28 -5 57 -10 30 -6 124 -13 209 -15 85 -3 191 -7 235 -9 73 -4 253
-12 460 -21 413 -18 1705 -26 1920 -12 166 11 204 14 250 21 22 3 58 8 80 11
22 2 50 7 61 9 12 2 37 7 55 10 19 3 43 8 54 10 84 18 133 31 220 56 55 16
118 32 140 36 52 8 76 12 95 17 8 2 33 8 55 12 55 12 55 12 58 14 1 2 12 4 25
7 82 15 389 136 502 197 101 56 225 135 305 196 43 34 84 61 90 61 6 0 42 21
80 46 62 42 99 62 117 63 3 1 22 -27 41 -61z m-5143 -778 c201 -296 258 -750
149 -1174 -16 -61 -31 -120 -33 -131 -3 -11 -28 -65 -56 -120 -109 -217 -283
-336 -474 -322 -95 7 -157 36 -231 112 -117 118 -168 286 -168 555 0 102 9
271 18 337 8 53 13 94 21 148 6 52 46 198 67 249 29 72 92 185 128 232 38 49
115 125 155 152 36 24 139 70 196 86 39 11 59 22 63 36 6 18 13 14 65 -39 32
-32 77 -87 100 -121z"/>
<path d="M4504 8602 c-60 -40 -208 -348 -259 -537 -9 -33 -20 -71 -25 -85 -5
-14 -11 -38 -14 -55 -2 -16 -12 -59 -21 -95 -17 -72 -17 -70 -43 -225 -14 -81
-18 -150 -17 -260 4 -208 18 -282 83 -427 24 -54 54 -69 84 -42 24 22 22 36
-22 156 -17 49 -33 105 -35 125 -2 21 -4 38 -5 38 -9 0 -13 221 -5 290 5 49
15 119 21 148 2 12 7 36 9 52 3 17 8 37 10 45 2 8 7 30 10 49 3 19 8 37 10 41
2 4 7 20 9 36 9 45 54 205 60 212 3 3 6 -10 7 -29 2 -91 38 -277 59 -304 4 -5
11 -21 15 -35 10 -36 83 -178 116 -227 16 -23 29 -46 29 -52 0 -6 3 -11 8 -11
4 0 18 -17 32 -37 65 -95 164 -207 391 -440 90 -92 112 -110 131 -106 27 6 48
30 48 54 0 9 -33 50 -72 91 -180 187 -228 238 -290 310 -187 215 -299 412
-341 598 -18 78 -17 70 -21 198 -4 151 18 265 80 399 19 42 34 81 34 89 0 31
-49 55 -76 36z"/>
<path d="M3447 7300 c-10 -14 -13 -38 -9 -78 10 -117 3 -413 -12 -488 -2 -12
-7 -45 -11 -74 -4 -29 -9 -62 -11 -74 -15 -65 -12 -106 6 -116 47 -25 73 -7
84 60 3 19 10 60 16 90 6 30 13 75 15 100 12 125 18 211 19 273 0 37 2 67 2
67 1 0 17 -24 35 -52 55 -87 171 -240 238 -314 20 -22 63 -14 78 15 15 31 8
44 -68 135 -53 62 -219 297 -219 309 0 9 -72 130 -88 150 -20 23 -58 22 -75
-3z"/>
<path d="M4551 6749 c-12 -11 -21 -26 -21 -34 0 -23 0 -22 -16 -60 -8 -19 -12
-35 -9 -35 3 0 1 -8 -4 -18 -6 -11 -12 -30 -15 -43 -3 -13 -15 -55 -26 -94
-12 -38 -23 -77 -25 -85 -2 -8 -11 -42 -19 -75 -17 -62 -40 -170 -52 -240 -8
-44 -7 -111 1 -163 16 -105 122 -215 189 -198 48 12 46 75 -4 96 -16 6 -41 30
-57 53 -26 37 -28 47 -27 131 0 66 8 119 28 196 15 58 30 112 32 120 2 8 13
51 25 95 11 44 22 87 24 95 2 8 16 63 32 122 30 115 28 133 -14 149 -15 5 -27
2 -42 -12z"/>
<path d="M5866 6674 c-9 -8 -16 -24 -16 -35 0 -38 109 -190 225 -314 21 -22
59 -65 86 -95 26 -30 58 -66 70 -80 12 -14 40 -50 63 -80 22 -30 43 -57 46
-60 12 -10 119 -168 177 -260 94 -149 191 -331 240 -450 36 -88 55 -138 54
-142 0 -2 6 -25 15 -53 39 -130 57 -278 57 -465 -1 -98 -9 -270 -18 -350 -8
-74 -8 -131 1 -140 12 -12 45 -15 66 -6 17 8 26 46 33 133 30 372 25 585 -20
773 -1 3 -5 21 -9 40 -37 170 -189 501 -318 692 -21 31 -38 59 -38 62 0 4
-104 157 -122 181 -5 6 -32 42 -60 80 -61 82 -107 135 -233 271 -82 88 -162
191 -207 268 -30 50 -62 61 -92 30z"/>
<path d="M3012 6247 c-191 -255 -368 -564 -463 -807 -16 -41 -34 -84 -39 -95
-31 -68 -117 -374 -135 -485 -3 -19 -8 -48 -11 -65 -12 -62 -27 -271 -27 -360
-1 -61 11 -231 18 -265 2 -13 7 -42 11 -65 5 -41 17 -93 38 -182 11 -44 49
-161 61 -188 7 -16 23 -54 34 -84 33 -84 83 -170 101 -176 23 -7 43 1 58 26
12 18 10 28 -11 72 -53 112 -87 189 -93 215 -4 15 -10 32 -14 37 -4 6 -10 21
-14 35 -42 157 -57 218 -62 262 -4 29 -8 56 -10 59 -5 10 -17 185 -17 264 0
80 12 276 17 284 2 3 7 31 11 61 4 30 9 58 11 61 2 4 6 24 9 44 2 21 7 45 10
55 3 10 7 27 9 37 17 85 80 278 135 417 87 215 304 598 401 706 13 14 45 58
71 99 39 58 47 77 39 91 -12 22 -23 30 -49 35 -15 3 -37 -19 -89 -88z"/>
<path d="M4860 6262 c-18 -14 -21 -25 -16 -45 5 -23 19 -30 119 -61 163 -51
333 -139 447 -231 33 -26 200 -194 224 -224 46 -59 110 -163 147 -238 44 -91
61 -106 96 -90 23 10 25 15 26 52 0 42 -133 273 -205 356 -78 90 -143 153
-229 224 -30 26 -122 90 -129 90 -3 0 -23 12 -45 26 -64 40 -170 88 -264 119
-123 41 -145 43 -171 22z"/>
<path d="M3683 5962 c-159 -159 -305 -366 -406 -579 -22 -48 -42 -90 -42 -93
-1 -3 -7 -18 -14 -34 -38 -93 -97 -304 -107 -386 -2 -19 -8 -59 -13 -88 -11
-69 -6 -353 7 -403 1 -3 12 -10 25 -16 45 -21 81 15 67 67 -8 30 -5 299 4 355
13 82 20 120 21 125 1 3 5 23 9 45 39 201 220 582 358 750 80 99 139 166 170
197 39 38 49 77 26 95 -34 27 -48 22 -105 -35z"/>
<path d="M5696 5058 c-9 -5 -16 -6 -16 -2 0 3 -7 1 -15 -6 -8 -7 -15 -10 -15
-6 0 3 -24 -6 -52 -21 -72 -37 -185 -151 -189 -190 -1 -5 -9 -24 -20 -44 -10
-20 -16 -39 -13 -42 3 -3 -3 -22 -14 -44 -48 -92 -55 -178 -28 -308 8 -40 40
-111 69 -155 33 -49 127 -149 140 -150 5 0 21 -8 35 -18 59 -40 136 -65 213
-68 95 -3 146 8 234 51 219 107 301 343 215 618 -75 240 -257 396 -461 395
-36 0 -73 -5 -83 -10z m137 -52 c203 -20 385 -267 392 -531 2 -76 -18 -165
-50 -218 -26 -45 -100 -127 -115 -127 -5 0 -15 -7 -23 -15 -9 -8 -47 -25 -86
-38 -106 -34 -221 -27 -319 21 -145 70 -261 259 -263 427 -2 111 30 172 136
258 25 21 27 27 16 41 -10 12 -18 13 -33 5 -31 -16 -31 -6 0 37 31 42 77 81
129 108 35 18 142 45 158 40 6 -2 31 -5 58 -8z"/>
<path d="M5780 4669 c-30 -10 -55 -19 -57 -19 -10 0 -55 -61 -64 -88 -28 -85
53 -197 149 -206 66 -6 148 38 177 94 30 58 12 159 -35 198 -47 39 -100 46
-170 21z"/>
<path d="M3980 4921 c-122 -35 -221 -120 -275 -236 -19 -38 -31 -73 -28 -78 2
-4 0 -14 -6 -21 -6 -7 -20 -39 -31 -70 -24 -70 -22 -216 4 -286 79 -214 271
-360 476 -360 157 0 318 92 394 223 89 154 81 373 -20 562 -115 218 -319 323
-514 266z m254 -74 c109 -50 222 -191 262 -329 24 -81 26 -88 28 -173 4 -127
-31 -223 -114 -306 -97 -97 -246 -136 -398 -105 -54 11 -141 64 -193 117 -100
101 -156 246 -147 379 7 98 47 161 137 221 35 23 22 54 -19 45 -27 -5 -29 -3
-21 12 20 35 91 102 133 124 70 37 109 46 193 44 63 -2 93 -8 139 -29z"/>
<path d="M4094 4541 c-71 -25 -90 -37 -113 -69 -95 -134 80 -304 231 -226 119
61 123 230 7 290 -43 22 -73 23 -125 5z"/>
<path d="M7553 4319 c-14 -5 -38 -41 -68 -101 -82 -163 -148 -246 -340 -428
-80 -76 -96 -135 -50 -184 29 -31 48 -33 75 -6 22 22 25 41 10 56 -7 7 17 38
71 95 180 187 206 217 247 279 l43 65 -5 -105 c-9 -178 -28 -276 -78 -420 -56
-159 -127 -284 -245 -433 -66 -83 -71 -93 -50 -120 26 -37 53 -29 105 31 47
55 131 171 161 223 67 115 158 350 176 454 4 22 9 51 11 65 26 147 24 411 -2
503 -7 24 -35 36 -61 26z"/>
<path d="M6435 3682 c-1 -2 -17 -5 -35 -7 -18 -3 -105 -22 -194 -44 -138 -34
-234 -55 -346 -76 -14 -3 -47 -9 -75 -15 -27 -5 -63 -12 -80 -15 -16 -3 -41
-7 -55 -10 -33 -8 -136 -25 -177 -31 -18 -2 -53 -8 -78 -14 -26 -6 -50 -8 -55
-5 -5 3 -11 1 -15 -5 -4 -6 -9 -8 -13 -6 -4 2 -29 0 -57 -4 -27 -4 -79 -11
-115 -15 -36 -4 -67 -8 -70 -10 -6 -3 -154 -17 -221 -20 -25 -1 -50 -4 -55 -7
-10 -6 -516 -1 -584 5 -145 14 -204 22 -335 47 -55 10 -113 21 -130 24 -16 3
-41 8 -55 11 -164 34 -357 17 -456 -40 -241 -140 -218 -507 47 -750 143 -132
357 -227 584 -261 22 -3 51 -7 65 -10 122 -19 561 -23 1075 -9 165 4 315 8
333 8 17 0 33 5 34 11 0 6 2 18 2 25 1 8 12 16 26 17 33 3 94 13 150 26 25 5
53 11 63 13 46 10 220 69 296 102 307 131 591 357 740 591 63 99 90 232 67
330 -9 39 -72 116 -96 117 -3 0 -9 3 -15 6 -26 16 -159 32 -170 21z m152 -65
c55 -29 81 -72 89 -150 8 -71 -14 -145 -64 -223 -62 -96 -217 -255 -337 -347
-5 -4 -27 -20 -48 -36 -104 -80 -157 -103 -157 -69 0 22 -72 80 -133 107 -53
24 -149 55 -205 66 -9 2 -53 12 -97 23 -44 11 -109 25 -145 31 -36 6 -78 13
-95 16 -175 30 -498 24 -645 -11 -14 -3 -38 -8 -54 -11 -53 -9 -210 -60 -286
-94 -92 -41 -215 -112 -297 -173 -67 -49 -211 -188 -239 -231 -15 -24 -21 -26
-58 -20 -65 11 -225 65 -291 98 -204 102 -346 257 -390 424 -16 59 -20 145
-10 198 23 117 123 210 252 234 43 8 205 6 263 -3 45 -7 109 -17 137 -21 15
-2 51 -8 80 -14 29 -6 74 -13 100 -17 26 -3 50 -7 53 -9 3 -2 29 -6 59 -10 30
-4 63 -9 75 -11 103 -23 578 -22 811 1 22 2 71 7 110 10 38 4 78 9 90 11 11 2
43 6 70 9 28 3 64 8 80 11 17 4 41 8 55 10 50 5 116 16 190 30 41 8 102 19
135 25 33 6 80 15 105 21 25 5 56 12 70 14 14 2 36 7 50 10 14 3 35 8 48 10
55 10 108 21 130 28 9 3 35 8 57 12 22 3 43 8 46 10 3 2 21 6 40 9 19 3 75 14
124 25 145 31 182 32 232 7z m-1317 -621 c47 -4 92 -9 100 -11 8 -2 37 -7 64
-10 61 -7 274 -57 386 -91 131 -40 181 -69 209 -122 13 -24 14 -23 -100 -78
-112 -55 -328 -125 -429 -140 -19 -3 -41 -7 -48 -9 -7 -3 -40 -7 -75 -11 -63
-6 -87 -17 -87 -38 0 -8 -17 -12 -42 -13 -24 0 -205 -4 -403 -8 -486 -10 -695
-10 -790 0 -44 4 -90 7 -102 6 -35 -1 -36 15 -1 56 100 117 263 241 409 313
110 54 289 114 399 134 19 3 45 8 56 10 24 5 93 -16 129 -40 53 -35 68 -121
32 -186 -11 -20 -17 -44 -13 -53 19 -50 86 47 86 124 0 54 -33 126 -67 148
-21 14 -22 18 -10 22 21 8 188 6 297 -3z"/>
<path d="M1806 3667 c-21 -15 -26 -82 -15 -207 17 -191 60 -341 154 -536 46
-94 210 -358 234 -374 4 -3 14 -14 22 -26 25 -37 102 -126 183 -211 79 -83 96
-92 130 -64 30 25 17 54 -57 132 -39 42 -80 86 -89 97 -9 11 -45 56 -80 99
-35 43 -65 80 -68 83 -5 5 -48 70 -109 165 -63 97 -165 334 -186 430 -1 6 -5
28 -10 50 -4 22 -9 49 -12 60 -8 42 -14 125 -8 125 3 0 38 -34 78 -76 40 -43
81 -86 92 -98 11 -12 67 -75 124 -141 145 -169 161 -185 177 -185 18 0 54 36
54 55 0 13 -105 150 -155 201 -11 11 -49 54 -85 94 -170 190 -320 340 -339
340 -10 0 -25 -6 -35 -13z"/>
<path d="M7027 3379 c-8 -5 -31 -50 -51 -101 -20 -51 -57 -128 -83 -171 -95
-157 -89 -141 -70 -170 34 -52 71 -24 153 113 34 55 63 111 69 130 1 3 9 22
18 42 31 68 42 125 29 141 -16 19 -45 27 -65 16z"/>
<path d="M2657 3002 c-39 -43 26 -263 108 -367 63 -78 146 -153 186 -168 24
-8 59 20 59 47 0 24 -18 45 -70 86 -18 14 -36 27 -39 30 -20 15 -82 102 -105
146 -27 53 -30 60 -47 156 -6 32 -18 63 -26 70 -23 19 -49 19 -66 0z"/>
<path d="M7521 1833 c-55 -72 -98 -116 -136 -138 -39 -23 -360 -174 -370 -174
-3 0 -26 -9 -51 -21 -26 -11 -51 -20 -55 -20 -5 0 -17 -4 -27 -9 -80 -42 -570
-203 -691 -226 -9 -1 -36 -8 -61 -15 -45 -12 -63 -16 -112 -25 -76 -14 -99
-38 -80 -81 16 -34 46 -31 232 16 85 22 162 42 170 44 59 15 112 31 206 62 60
20 116 37 124 39 14 3 107 36 160 58 14 6 32 11 40 13 8 2 23 7 35 13 11 6 76
33 145 62 383 157 516 245 557 366 10 26 9 34 -6 47 -26 24 -57 19 -80 -11z"/>
<path d="M5177 1544 c-1 -1 -36 -5 -77 -8 -42 -4 -87 -8 -100 -11 -14 -2 -45
-6 -70 -9 -25 -3 -56 -8 -70 -11 -14 -3 -40 -7 -58 -10 -18 -2 -36 -6 -40 -9
-4 -2 -23 -7 -42 -10 -150 -25 -303 -84 -334 -128 -44 -63 17 -154 68 -102 9
8 16 26 16 39 0 18 7 24 38 30 20 5 42 9 47 11 211 50 467 104 520 109 137 14
335 13 347 -2 8 -10 14 -10 24 -2 7 6 32 9 56 8 65 -4 88 7 88 41 0 54 -27 62
-230 64 -99 1 -182 1 -183 0z"/>
<path d="M5377 1024 c-4 -4 -54 -12 -184 -29 -12 -2 -34 -6 -50 -9 -15 -3 -50
-8 -78 -11 -27 -3 -61 -7 -75 -10 -14 -2 -49 -7 -79 -10 -30 -4 -61 -8 -70
-10 -15 -3 -109 -14 -161 -20 -23 -2 -72 -9 -160 -20 -19 -3 -60 -7 -90 -10
-30 -3 -68 -8 -85 -10 -16 -2 -55 -7 -85 -10 -30 -3 -73 -8 -95 -10 -22 -3
-62 -7 -90 -9 -27 -3 -75 -7 -105 -11 -105 -11 -135 -14 -215 -20 -44 -3 -96
-8 -115 -10 -19 -3 -69 -7 -110 -10 -41 -3 -100 -7 -130 -10 -93 -8 -181 -14
-280 -20 -197 -13 -194 -13 -211 -34 -20 -24 -14 -57 11 -71 10 -5 42 -7 71
-5 30 2 90 7 134 10 101 7 203 14 280 20 33 3 95 7 138 11 43 3 95 7 115 10
20 2 64 6 97 9 33 3 85 7 115 10 30 3 75 8 100 10 25 3 77 7 115 10 39 3 81 8
95 10 14 2 50 7 80 10 30 3 71 8 90 10 39 5 116 14 170 19 46 5 139 17 159 21
9 1 45 6 81 10 36 3 76 8 90 10 14 2 45 7 69 10 23 3 55 7 70 9 14 3 51 8 81
12 30 4 64 8 75 10 40 5 101 15 125 19 14 2 45 7 70 10 126 17 145 25 135 63
-3 15 -10 31 -15 36 -8 8 -77 16 -83 10z"/>
<path d="M1997 1737 c-19 -13 -21 -26 -14 -95 4 -34 12 -49 38 -70 59 -48 120
-116 154 -173 43 -69 103 -196 109 -229 3 -14 9 -40 15 -59 6 -19 8 -37 6 -42
-3 -4 -2 -10 3 -13 14 -9 6 -217 -12 -282 -20 -78 -68 -196 -86 -214 -3 -3
-17 -23 -32 -45 -57 -87 -140 -151 -177 -137 -48 17 -96 77 -118 147 -15 49
-43 162 -47 192 -19 129 -23 174 -20 242 5 142 24 210 70 257 48 47 68 42 116
-28 48 -70 66 -151 68 -307 0 -63 5 -122 10 -131 13 -25 56 -31 73 -11 35 42
46 204 21 304 -7 29 -20 80 -28 115 -9 34 -25 80 -36 101 -22 45 -73 91 -100
91 -10 0 -22 5 -25 10 -18 29 -132 -20 -184 -78 -19 -22 -61 -98 -66 -122 -38
-155 -34 -344 10 -532 44 -191 140 -335 237 -357 107 -25 256 99 346 288 96
201 113 414 53 656 -29 116 -89 264 -133 329 -23 34 -110 125 -152 160 -51 41
-77 50 -99 33z"/>
<path d="M2136 8165 c-19 -20 -11 -41 31 -78 40 -35 52 -76 41 -141 -7 -48
-26 -89 -144 -316 -115 -221 -134 -337 -72 -454 23 -43 123 -126 203 -167 78
-40 83 -44 83 -74 0 -18 5 -42 11 -54 14 -25 59 -49 82 -44 29 7 32 73 3 73
-38 0 -1 97 114 298 62 107 91 169 98 207 1 6 7 29 13 53 14 49 17 153 7 224
-18 135 -116 296 -234 381 -55 40 -142 89 -142 81 0 -4 -6 -2 -12 3 -25 20
-66 24 -82 8z m243 -204 c56 -56 124 -169 136 -226 40 -180 21 -304 -67 -445
-23 -36 -49 -77 -58 -91 -10 -14 -32 -54 -50 -90 -18 -35 -34 -65 -35 -67 -2
-2 -36 13 -77 32 -164 81 -222 187 -183 335 11 42 94 219 115 246 4 6 26 44
48 85 48 89 81 199 76 258 -3 40 -2 42 18 31 11 -6 46 -36 77 -68z"/>
<path d="M2297 7722 c-22 -24 -21 -34 3 -74 26 -44 15 -84 -47 -180 -70 -108
-84 -179 -48 -248 28 -55 83 -33 102 40 10 37 7 61 -10 72 -7 4 12 44 47 102
32 53 62 112 66 131 19 86 -26 173 -91 175 -3 0 -13 -8 -22 -18z"/>
<path d="M7674 6749 c-138 -108 -250 -217 -336 -326 -105 -131 -126 -235 -72
-351 16 -34 81 -115 155 -192 67 -71 162 -191 229 -290 33 -49 67 -90 75 -90
7 0 21 8 30 17 10 9 31 24 49 34 27 14 31 22 31 55 0 22 6 46 12 54 80 96 162
224 185 288 15 42 19 75 16 122 -5 75 -24 121 -75 176 -19 21 -57 62 -83 91
-85 93 -128 207 -128 341 0 107 -21 124 -88 71z m14 -126 c-1 -108 79 -266
199 -393 52 -54 78 -116 77 -180 -2 -92 -14 -119 -133 -290 -36 -52 -74 -108
-84 -123 l-18 -28 -20 25 c-10 13 -19 27 -19 31 0 5 -62 91 -100 138 -8 10
-43 47 -76 83 -109 112 -154 166 -169 198 -15 33 -35 113 -29 118 1 2 5 17 8
34 12 69 55 140 139 231 56 61 199 183 214 183 6 0 11 -12 11 -27z"/>
<path d="M7541 6403 c-41 -88 -45 -173 -13 -245 11 -24 50 -77 86 -118 76 -84
88 -106 91 -168 2 -46 8 -56 41 -66 37 -11 59 16 58 76 -1 65 -22 108 -103
207 -95 117 -101 138 -76 274 8 46 -6 67 -45 67 -20 0 -30 -7 -39 -27z"/>
</g>
</svg>
