<?xml version="1.0" encoding="utf-8"?>
<!-- Generator: Adobe Illustrator 22.0.1, SVG Export Plug-In . SVG Version: 6.00 Build 0)  -->
<svg version="1.1" id="Layer_1" xmlns="http://www.w3.org/2000/svg" xmlns:xlink="http://www.w3.org/1999/xlink" x="0px" y="0px"
	 width="298.2px" height="118.2px" viewBox="0 0 298.2 118.2" style="enable-background:new 0 0 298.2 118.2;" xml:space="preserve"
	>
<title>controls</title>
<g id="controls">
	<g id="play_pause">
		<g id="play">
			<g id="Polygon">
				<path style="fill:#FFFFFF;stroke:#9EDDF9;stroke-miterlimit:10;" d="M14.5,9.3c0.3,0.1,0.4,0.4,0.3,0.7c0,0,0,0.1-0.1,0.1
					c-0.1,0.1-0.1,0.2-0.2,0.2l-11.4,7c-0.5,0.3-0.8,0.1-0.8-0.5v-14c0-0.5,0.4-0.8,0.8-0.5L14.5,9.3z"/>
			</g>
		</g>
	</g>
	<g id="pause">
		<path style="fill:#FFFFFF;stroke:#9EDDF9;stroke-miterlimit:10;" d="M22,1.8h2.2c0.5,0,1,0.4,1,0.9c0,0,0,0.1,0,0.1v14
			c0,0.5-0.4,1-0.9,1c0,0-0.1,0-0.1,0H22c-0.5,0-1-0.4-1-0.9c0,0,0-0.1,0-0.1v-14C21,2.3,21.4,1.8,22,1.8z"/>
		<path style="fill:#FFFFFF;stroke:#9EDDF9;stroke-miterlimit:10;" d="M31.8,1.8H34c0.5,0,1,0.4,1,0.9c0,0,0,0.1,0,0.1v14
			c0,0.5-0.4,1-0.9,1c0,0-0.1,0-0.1,0h-2.2c-0.5,0-1-0.4-1-0.9c0,0,0-0.1,0-0.1v-14C30.8,2.3,31.2,1.8,31.8,1.8z"/>
	</g>
	<g id="fullscreen">
		<g id="enter">
			<path style="fill:#FFFFFF;stroke:#9EDDF9;stroke-miterlimit:10;" d="M79,2.2c0-0.5,0.4-1,0.9-1c0,0,0.1,0,0.1,0h5.4
				c0.6,0,0.7,0.3,0.3,0.7l-6,6C79.3,8.3,79,8.2,79,7.6L79,2.2z"/>
			<path style="fill:#FFFFFF;stroke:#9EDDF9;stroke-miterlimit:10;" d="M79,18c0,0.5,0.4,1,0.9,1c0,0,0.1,0,0.1,0h5.4
				c0.6,0,0.7-0.3,0.3-0.7l-6-6C79.3,11.9,79,12,79,12.6L79,18z"/>
			<path style="fill:#FFFFFF;stroke:#9EDDF9;stroke-miterlimit:10;" d="M96.8,2.2c0-0.5-0.4-1-0.9-1c0,0-0.1,0-0.1,0h-5.4
				c-0.6,0-0.7,0.3-0.3,0.7l6,6c0.4,0.4,0.7,0.3,0.7-0.3L96.8,2.2z"/>
			<path style="fill:#FFFFFF;stroke:#9EDDF9;stroke-miterlimit:10;" d="M96.8,18c0,0.5-0.4,1-0.9,1c0,0-0.1,0-0.1,0h-5.4
				c-0.6,0-0.7-0.3-0.3-0.7l6-6c0.4-0.4,0.7-0.3,0.7,0.3L96.8,18z"/>
		</g>
	</g>
	<g id="exit">
		<path style="fill:#FFFFFF;stroke:#9EDDF9;stroke-miterlimit:10;" d="M110.7,5.8c0,0.5,0.4,1,0.9,1c0,0,0.1,0,0.1,0h4.1
			c0.6,0,0.7-0.3,0.3-0.7l-4.7-4.7c-0.4-0.4-0.7-0.3-0.7,0.3L110.7,5.8z"/>
		<path style="fill:#FFFFFF;stroke:#9EDDF9;stroke-miterlimit:10;" d="M103.6,6.8c0.5,0,1-0.4,1-0.9c0,0,0-0.1,0-0.1V1.7
			c0-0.6-0.3-0.7-0.7-0.3l-4.7,4.7c-0.4,0.4-0.3,0.7,0.3,0.7L103.6,6.8z"/>
		<path style="fill:#FFFFFF;stroke:#9EDDF9;stroke-miterlimit:10;" d="M104.6,13.9c0-0.5-0.4-1-0.9-1c0,0-0.1,0-0.1,0h-4.1
			c-0.6,0-0.7,0.3-0.3,0.7l4.7,4.7c0.4,0.4,0.7,0.3,0.7-0.3L104.6,13.9z"/>
		<path style="fill:#FFFFFF;stroke:#9EDDF9;stroke-miterlimit:10;" d="M111.7,12.9c-0.5,0-1,0.4-1,0.9c0,0,0,0.1,0,0.1V18
			c0,0.5,0.3,0.7,0.7,0.3l4.7-4.7c0.4-0.4,0.3-0.7-0.3-0.7H111.7z"/>
	</g>
	<g id="volume">
		<path style="fill:#FFFFFF;stroke:#9EDDF9;stroke-miterlimit:10;" d="M65,6.6c-0.5,0.4-1.2,0.6-1.8,0.6H60c-0.5,0-1,0.4-1,0.9
			c0,0,0,0.1,0,0.1v5.7c0,0.5,0.4,1,0.9,1c0,0,0.1,0,0.1,0h4.2c0.3,0.2,0.5,0.4,0.8,0.6l3.5,2.6c0.2,0.2,0.5,0.2,0.7,0
			c0.1-0.1,0.2-0.3,0.1-0.4V4.3c0-0.3-0.1-0.5-0.4-0.5c-0.1,0-0.3,0-0.4,0.1L65,6.6z"/>
		<g id="volume-2">
			<g id="soundbars">
				<path style="fill:#FFFFFF;stroke:#9EDDF9;stroke-width:1.5;stroke-linecap:round;" d="M71.9,3.3c0,0,3.9-0.8,3.9,7.7
					s-3.9,7.8-3.9,7.8"/>
				<path style="fill:#FFFFFF;stroke:#9EDDF9;stroke-width:1.5;stroke-linecap:round;" d="M70.6,7.2c0,0,2.6-0.4,2.6,3.8
					s-2.6,3.9-2.6,3.9"/>
			</g>
		</g>
	</g>
	<g id="closed_captions">
		<path style="fill:#FFFFFF;stroke:#9EDDF9;" d="M126.7,9.4c-6.2-4.2-6.5,7.8,0,3.9"/>
		<path style="fill:#FFFFFF;stroke:#9EDDF9;" d="M133.2,9.4c-6.2-4.2-6.5,7.8,0,3.9"/>
		<path style="fill:#FFFFFF;stroke:#9EDDF9;stroke-miterlimit:10;" d="M120.2,4.2h15.7v13.1h-15.7V4.2z M118.8,2.8v15.7h18.3V2.8
			H118.8z"/>
	</g>
	<g id="muted">
		<path style="fill:#FFFFFF;stroke:#9EDDF9;stroke-miterlimit:10;" d="M45,6.6c-0.5,0.4-1.2,0.6-1.8,0.6H40c-0.5,0-1,0.4-1,0.9
			c0,0,0,0.1,0,0.1v5.7c0,0.5,0.4,1,0.9,1c0,0,0.1,0,0.1,0h4.2c0.3,0.2,0.5,0.4,0.8,0.6l3.5,2.6c0.2,0.2,0.5,0.2,0.7,0
			c0.1-0.1,0.2-0.3,0.1-0.4V4.3c0-0.3-0.1-0.5-0.4-0.5c-0.1,0-0.3,0-0.4,0.1L45,6.6z"/>
		<line style="fill:none;stroke:#9EDDF9;stroke-width:2;stroke-linecap:round;" x1="50.8" y1="7.8" x2="56.2" y2="13.2"/>
		<line style="fill:none;stroke:#9EDDF9;stroke-width:2;stroke-linecap:round;" x1="50.8" y1="13.2" x2="56.2" y2="7.8"/>
	</g>
	<g id="skip_forward">
		<g id="play_pause-2">
			<g id="play-2">
				<path id="Polygon-2" style="fill:#FFFFFF;stroke:#9EDDF9;stroke-miterlimit:10;" d="M190.2,3l-4.3,2.2V0.8L190.2,3z"/>
			</g>
		</g>
		<g id="play_pause-3">
			<g id="play-3">
				<path id="Polygon-3" style="fill:#FFFFFF;stroke:#9EDDF9;stroke-miterlimit:10;" d="M192.9,3l-4.3,2.2V0.8L192.9,3z"/>
			</g>
		</g>
		<path style="fill:#FFFFFF;stroke:#9EDDF9;stroke-width:2;" d="M188,3c-4.5,0-8.2,3.6-8.2,8.1c0,0,0,0,0,0l0,0"/>
		<path style="fill:#FFFFFF;stroke:#9EDDF9;stroke-width:2;" d="M179.8,10.6c0,4.5,3.6,8.2,8.1,8.2c0,0,0,0,0,0l0,0"/>
		<path style="fill:#FFFFFF;stroke:#9EDDF9;stroke-width:2;" d="M187.6,18.8c4.5,0,8.2-3.6,8.2-8.1c0,0,0,0,0,0l0,0"/>
	</g>
	<g id="skipback">
		<path style="fill:#FFFFFF;stroke:#9EDDF9;stroke-width:2;" d="M160.7,10.5c0,4.5,3.6,8.2,8.1,8.2c0,0,0,0,0,0l0,0"/>
		<path style="fill:#FFFFFF;stroke:#9EDDF9;stroke-width:2;" d="M168.4,18.6c4.5,0,8.2-3.6,8.2-8.1c0,0,0,0,0,0l0,0"/>
		<path style="fill:#FFFFFF;stroke:#9EDDF9;stroke-width:2;" d="M176.5,10.8c0-4.5-3.6-8.2-8.1-8.2c0,0,0,0,0,0l0,0"/>
		<g id="play_pause-4">
			<g id="play-4">
				<path id="Polygon-4" style="fill:#FFFFFF;stroke:#9EDDF9;stroke-miterlimit:10;" d="M164.6,3l4.3,2.2V0.8L164.6,3z"/>
			</g>
		</g>
		<g id="play_pause-5">
			<g id="play-5">
				<path id="Polygon-5" style="fill:#FFFFFF;stroke:#9EDDF9;stroke-miterlimit:10;" d="M161.9,3l4.3,2.2V0.8L161.9,3z"/>
			</g>
		</g>
	</g>
	<g id="close_captions">
		<path style="fill:#FFFFFF;stroke:#9EDDF9;stroke-miterlimit:10;" d="M141.2,3.8h14c1.1,0,2,0.9,2,2v10c0,1.1-0.9,2-2,2h-14
			c-1.1,0-2-0.9-2-2v-10C139.2,4.7,140.1,3.8,141.2,3.8z"/>
		<path style="fill:#FFFFFF;stroke:#9EDDF9;stroke-miterlimit:10;" d="M144.4,14.6c-0.8,0-1.6-0.4-2.1-1c-1.1-1.4-1-3.4,0.1-4.8
			c0.5-0.6,2-1.7,4.6,0.2l-0.6,0.8c-1.4-1-2.6-1.1-3.3-0.3c-0.8,1-0.8,2.4-0.1,3.5c0.7,0.9,1.9,0.8,3.4-0.1l0.5,0.9
			C146.1,14.3,145.3,14.6,144.4,14.6z"/>
		<path style="fill:#FFFFFF;stroke:#9EDDF9;stroke-miterlimit:10;" d="M151.9,14.6c-0.8,0-1.6-0.4-2.1-1c-1.1-1.4-1-3.4,0.1-4.8
			c0.5-0.6,2-1.7,4.6,0.2L154,9.8c-1.4-1-2.6-1.1-3.3-0.3c-0.8,1-0.8,2.4-0.1,3.5c0.7,0.9,1.9,0.8,3.4-0.1l0.5,0.9
			C153.7,14.3,152.8,14.6,151.9,14.6z"/>
	</g>
	<path style="fill:#FFFFFF;stroke:#9EDDF9;stroke-miterlimit:10;" d="M216.6,10.2c0-0.6-0.4-1.1-1-1.2l-1.9-0.5
		c-0.4-0.1-0.6-0.4-0.6-0.8c0-0.1,0.1-0.2,0.1-0.3l1-1.6c0.3-0.5,0.2-1.1-0.1-1.6l0,0c-0.4-0.4-1.1-0.5-1.6-0.2l-1.6,1
		c-0.3,0.2-0.7,0.2-1-0.1c0,0,0,0,0-0.1c-0.1-0.1-0.1-0.2-0.1-0.3l-0.5-1.8c-0.1-0.6-0.6-1-1.2-1l0,0c-0.6,0-1.1,0.4-1.2,1l-0.5,1.8
		c-0.1,0.4-0.4,0.6-0.8,0.6c-0.1,0-0.2-0.1-0.3-0.1l-1.6-1c-0.5-0.3-1.2-0.2-1.6,0.2l0,0c-0.4,0.4-0.5,1.1-0.2,1.6l1,1.6
		c0.2,0.3,0.2,0.7-0.1,1c0,0,0,0-0.1,0c-0.1,0.1-0.2,0.1-0.3,0.1L200.5,9c-0.6,0.1-1,0.6-1,1.2l0,0c0,0.6,0.4,1.1,1,1.2l1.9,0.5
		c0.4,0.1,0.6,0.4,0.6,0.8c0,0.1-0.1,0.2-0.1,0.3l-1,1.6c-0.3,0.5-0.2,1.2,0.2,1.6l0,0c0.4,0.4,1.1,0.5,1.6,0.2l1.6-1
		c0.3-0.2,0.7-0.2,1,0.1c0,0,0,0,0,0.1c0.1,0.1,0.1,0.2,0.1,0.3l0.5,1.9c0.1,0.6,0.6,1,1.2,1l0,0c0.6,0,1.1-0.4,1.2-1l0.5-1.9
		c0.1-0.4,0.4-0.6,0.8-0.6c0.1,0,0.2,0.1,0.3,0.1l1.6,1c0.5,0.3,1.2,0.2,1.6-0.2l0,0c0.4-0.4,0.5-1.1,0.2-1.6l-1-1.6
		c-0.2-0.3-0.2-0.7,0.1-1c0,0,0,0,0.1,0c0.1-0.1,0.2-0.1,0.3-0.1l1.9-0.5C216.2,11.3,216.6,10.8,216.6,10.2L216.6,10.2z M211,10.2
		c0,1.5-1.3,2.8-2.8,2.8l0,0c-1.5,0-2.8-1.3-2.8-2.8c0-1.5,1.3-2.8,2.8-2.8l0,0l0,0C209.7,7.4,211,8.7,211,10.2
		C211,10.2,211,10.2,211,10.2z"/>
	<path style="fill:#FFFFFF;stroke:#9EDDF9;stroke-miterlimit:10;" d="M223,3.6h10c1.1,0,2,0.9,2,2l0,0v10c0,1.1-0.9,2-2,2h-10
		c-1.1,0-2-0.9-2-2v-10C221,4.5,221.9,3.6,223,3.6L223,3.6z"/>
	<g id="loop">
		<path style="fill:#FFFFFF;stroke:#9EDDF9;stroke-miterlimit:10;" d="M252.2,7.3c2,2.4,1.6,5.9-0.8,7.9c0,0-0.1,0.1-0.1,0.1
			c-2.4,2-5.9,1.6-7.9-0.8c0,0-0.1-0.1-0.1-0.1c-1.8-2.2-1.7-5.3,0.2-7.4l-1.6-1.6c-3.1,3.1-3.1,8.2,0,11.3c3.1,3.1,8.2,3.1,11.3,0
			c0.1-0.1,0.3-0.3,0.4-0.4c2.8-2.9,2.9-7.6,0.2-10.6L252.2,7.3z"/>
		<g id="play_pause-6">
			<g id="play-6">
				<g id="Polygon-6">
					<path style="fill:#FFFFFF;stroke:#9EDDF9;stroke-miterlimit:10;" d="M249.3,4.2c-0.1-0.4,0.2-0.8,0.6-0.9h0.3l5.5,0.8
						c0.5,0.1,0.7,0.5,0.3,0.8l-5,5c-0.4,0.4-0.8,0.3-0.8-0.3L249.3,4.2z"/>
				</g>
			</g>
		</g>
	</g>
	<g id="loop_off" style="opacity:0.5;">
		<path style="fill:#FFFFFF;stroke:#9EDDF9;stroke-miterlimit:10;" d="M272.4,7.6c2,2.4,1.6,5.9-0.8,7.9c0,0-0.1,0.1-0.1,0.1
			c-2.5,2-6,1.6-8-0.9c-1.8-2.2-1.7-5.3,0.2-7.4l-1.6-1.6c-2.9,3.3-2.5,8.4,0.8,11.3c3.2,2.8,7.9,2.6,10.9-0.4
			c2.8-2.9,2.9-7.6,0.2-10.6L272.4,7.6z"/>
		<g id="play_pause-7">
			<g id="play-7">
				<g id="Polygon-7">
					<path style="fill:#FFFFFF;stroke:#9EDDF9;stroke-miterlimit:10;" d="M269.5,4.4c-0.1-0.4,0.2-0.8,0.6-0.9h0.3l5.5,0.8
						c0.5,0.1,0.7,0.5,0.3,0.8l-5,5c-0.4,0.4-0.8,0.3-0.8-0.3L269.5,4.4z"/>
				</g>
			</g>
		</g>
	</g>
</g>
<g id="big_play">
	<g id="big_play_-_light">
		<g id="Polygon-8" style="opacity:0.75;">
			<path style="fill:#9DDCF9;stroke:#3E2EBF;stroke-miterlimit:10;" d="M58.3,77.8c0.5,0.2,0.8,0.7,0.7,1.3c0,0.1,0,0.1-0.1,0.1
				c-0.1,0.3-0.3,0.5-0.6,0.6L28,97.3c-1,0.6-1.7,0.1-1.7-1v-35c0-1.1,0.8-1.5,1.7-1L58.3,77.8z"/>
		</g>
		<path id="Ellipse" style="opacity:0.75;fill:#9DDCF9;stroke:#3E2EBF;enable-background:new    ;" d="M0.5,79.8
			c0-20.7,16.8-37.5,37.5-37.5s37.5,16.8,37.5,37.5S58.7,117.3,38,117.3C17.3,117.3,0.5,100.5,0.5,79.8z"/>
	</g>
	<g id="big_play_hover">
		<g id="Polygon2">
			<path style="fill:#9DDCF9;stroke:#3E2EBF;stroke-miterlimit:10;" d="M138.3,77.8c0.5,0.2,0.8,0.7,0.7,1.3c0,0.1,0,0.1-0.1,0.1
				c-0.1,0.3-0.3,0.5-0.6,0.6L108,97.3c-1,0.6-1.7,0.1-1.7-1v-35c0-1.1,0.8-1.5,1.7-1L138.3,77.8z"/>
		</g>
		<path id="Ellipse2" style="fill:#9DDCF9;stroke:#3E2EBF;" d="M80.5,79.8c0-20.7,16.8-37.5,37.5-37.5s37.5,16.8,37.5,37.5
			s-16.8,37.5-37.5,37.5C97.3,117.3,80.5,100.5,80.5,79.8z"/>
	</g>
	<g id="Loading">
		<circle style="fill:#9DDCF9;stroke:#3E2EBF;stroke-miterlimit:10;" cx="199.9" cy="47.9" r="8.1"/>
		
			<circle style="opacity:0.4;fill:#9DDCF9;stroke:#3E2EBF;stroke-miterlimit:10;enable-background:new    ;" cx="231.9" cy="79.8" r="5"/>
		
			<circle style="opacity:0.6;fill:#9DDCF9;stroke:#3E2EBF;stroke-miterlimit:10;enable-background:new    ;" cx="199.9" cy="111.7" r="6"/>
		
			<circle style="opacity:0.8;fill:#9DDCF9;stroke:#3E2EBF;stroke-miterlimit:10;enable-background:new    ;" cx="168.1" cy="79.8" r="7"/>
		
			<circle style="opacity:0.9;fill:#9DDCF9;stroke:#3E2EBF;stroke-miterlimit:10;enable-background:new    ;" cx="176.2" cy="57.1" r="7.5"/>
		
			<circle style="opacity:0.3;fill:#9DDCF9;stroke:#3E2EBF;stroke-miterlimit:10;enable-background:new    ;" cx="224.3" cy="56.9" r="4.5"/>
		
			<circle style="opacity:0.5;fill:#9DDCF9;stroke:#3E2EBF;stroke-miterlimit:10;enable-background:new    ;" cx="223.8" cy="103.6" r="5.5"/>
		
			<circle style="opacity:0.7;fill:#9DDCF9;stroke:#3E2EBF;stroke-miterlimit:10;enable-background:new    ;" cx="176.2" cy="103.6" r="6.5"/>
	</g>
</g>
<g id="Guides">
	<g id="play_pause-8">
		<g id="play-8">
			<g id="Polygon-9">
				<path style="fill:#FFFFFF;stroke:#9EDDF9;stroke-miterlimit:10;" d="M296.8,10.4c-0.1,0.4-0.5,0.8-0.9,0.7c-0.1,0-0.2,0-0.2-0.1
					l-4.9-1.8c-0.5-0.2-0.5-0.6-0.1-0.9l6.3-3.5c0.5-0.3,0.8-0.1,0.7,0.5L296.8,10.4z"/>
			</g>
		</g>
	</g>
	<path id="replay" style="fill:#FFFFFF;stroke:#9EDDF9;stroke-miterlimit:10;" d="M288.2,16.9c-1,0-2-0.2-2.9-0.7
		c-2-1-3.2-3-3.2-5.2c0.1-3.4,2.9-6.1,6.3-6c2.5,0.1,4.8,1.7,5.6,4.1l0.1-0.1l2.1,1.1c-0.6-4.4-4.7-7.5-9.1-6.9
		c-3.9,0.6-6.9,3.9-7,7.9c0,2.9,1.7,5.6,4.3,7c1.2,0.6,2.5,0.9,3.8,1c2.6,0,5-1.2,6.6-3.3l-1.8-0.9C291.7,16.2,290,16.9,288.2,16.9z
		"/>
</g>
</svg>
